<?xml version="1.0" encoding="UTF-8" standalone="no"?>
<!-- Created with Inkscape (http://www.inkscape.org/) -->

<svg
   xmlns:dc="http://purl.org/dc/elements/1.1/"
   xmlns:cc="http://creativecommons.org/ns#"
   xmlns:rdf="http://www.w3.org/1999/02/22-rdf-syntax-ns#"
   xmlns:svg="http://www.w3.org/2000/svg"
   xmlns="http://www.w3.org/2000/svg"
   xmlns:sodipodi="http://sodipodi.sourceforge.net/DTD/sodipodi-0.dtd"
   xmlns:inkscape="http://www.inkscape.org/namespaces/inkscape"
   id="svg2"
   version="1.1"
   inkscape:version="0.92.5 (2060ec1f9f, 2020-04-08)"
   xml:space="preserve"
   width="512"
   height="512"
   viewBox="0 0 512 511.99999"
   sodipodi:docname="QPL_logo_MM_initials.svg"><metadata
     id="metadata8"><rdf:RDF><cc:Work
         rdf:about=""><dc:format>image/svg+xml</dc:format><dc:type
           rdf:resource="http://purl.org/dc/dcmitype/StillImage" /><dc:title></dc:title></cc:Work></rdf:RDF></metadata><defs
     id="defs6" /><sodipodi:namedview
     pagecolor="#ffffff"
     bordercolor="#666666"
     borderopacity="1"
     objecttolerance="10"
     gridtolerance="10"
     guidetolerance="10"
     inkscape:pageopacity="0"
     inkscape:pageshadow="2"
     inkscape:window-width="1920"
     inkscape:window-height="1007"
     id="namedview4"
     showgrid="false"
     inkscape:zoom="1.0074074"
     inkscape:cx="-29.368038"
     inkscape:cy="246.8587"
     inkscape:window-x="0"
     inkscape:window-y="0"
     inkscape:window-maximized="1"
     inkscape:current-layer="g856"
     fit-margin-top="0"
     fit-margin-left="0"
     fit-margin-right="0"
     fit-margin-bottom="0" /><g
     id="g10"
     inkscape:groupmode="layer"
     inkscape:label="ink_ext_XXXXXX"
     transform="matrix(1.25,0,0,-1.25,0,513.25001)"><g
       id="g878"><g
   aria-label="©Michał Mikołajczyk"
   transform="scale(1,-1)"
   style="font-style:normal;font-weight:normal;font-size:35.79249191px;line-height:1.25;font-family:sans-serif;letter-spacing:0px;word-spacing:0px;fill:#000000;fill-opacity:1;stroke:none;stroke-width:0.80000001"
   id="text819"><g
     id="g885"
     transform="translate(0,-19.2)"><g
       id="g4243"
       transform="matrix(1,0,0,-1,0,-104.8787)"
       style="fill:#220000;fill-opacity:1;stroke:#000000;stroke-opacity:1"><path
         d="m 80.240547,190.22236 c 22.152613,0 41.102533,-7.83533 56.842173,-23.50475 15.67307,-15.66973 23.50718,-34.58288 23.50718,-56.7355 0,-20.371954 -6.80109,-38.145408 -20.40752,-53.316409 C 126.79204,41.56369 110.12181,32.802329 90.178376,30.382835 V 10.721834 c 0,-2.7079738 -0.962814,-5.0229814 -2.883882,-6.9438371 C 85.370082,1.9236385 83.055135,1 80.349653,1 h -0.21487 c -2.705482,0 -4.98487,0.9236385 -6.838165,2.7779969 -1.924412,1.9208557 -2.884794,4.2358633 -2.884794,6.9438371 V 30.382835 C 50.465961,32.802329 33.762299,41.56369 20.301995,56.665701 6.7681117,71.836702 0,89.610156 0,109.98211 c 0,22.15262 7.8354125,41.06577 23.504991,56.7355 15.673135,15.66942 34.582637,23.50475 56.735556,23.50475 z M 80.349653,86.477061 c 2.705482,0 5.020429,-0.964029 6.944841,-2.887225 1.921068,-1.920764 2.883882,-4.200153 2.883882,-6.838165 V 50.256062 c 14.461044,2.349593 26.498954,9.150984 36.115234,20.405388 9.68619,11.326736 14.52973,24.432307 14.52973,39.32066 0,16.74044 -5.91091,31.02096 -17.73637,42.84643 -11.82547,11.82212 -26.105988,17.73668 -42.846423,17.73668 -16.666888,0 -30.91428,-5.91456 -42.737619,-17.73668 -11.825376,-11.82547 -17.736346,-26.10599 -17.736346,-42.84643 0,-14.958558 4.844885,-28.063825 14.531222,-39.32066 9.614764,-11.254404 21.654189,-18.055795 36.11402,-20.405388 v 26.495609 c 0,2.638012 0.960382,4.917401 2.884794,6.838165 1.853295,1.923196 4.132683,2.887225 6.838165,2.887225 z"
         style="fill:#220000;fill-opacity:1;fill-rule:nonzero;stroke:#000000;stroke-opacity:1"
         id="path14"
         inkscape:connector-curvature="0" /><path
         d="m 200.76548,102.93151 h 33.7623 c 9.32999,0 17.30785,3.30967 23.93358,9.93418 6.55187,6.55339 9.82872,14.49782 9.82872,23.82782 0,9.33029 -3.27685,17.30815 -9.82872,23.93357 -6.62573,6.62573 -14.60359,9.93814 -23.93358,9.93814 -9.33029,0 -17.30815,-3.31241 -23.93358,-9.93814 -6.55217,-6.62542 -9.82872,-14.60328 -9.82872,-23.93357 z m 0,-19.766552 V 39.463614 c 0,-2.708217 -0.96281,-4.987606 -2.88722,-6.838165 -1.92077,-1.9235 -4.20016,-2.883882 -6.83817,-2.883882 h -0.31942 c -2.63436,0 -4.91375,0.960382 -6.83816,2.883882 -1.9232,1.850559 -2.88358,4.129948 -2.88358,6.838165 v 97.229896 c 0,14.81602 5.23317,27.45842 15.7062,37.92932 10.46999,10.39979 23.07653,15.59953 37.82265,15.59953 14.81603,0 27.42256,-5.19974 37.82235,-15.59953 10.47333,-10.4709 15.7065,-23.1133 15.7065,-37.92932 0,-14.74582 -5.23317,-27.35266 -15.7065,-37.822351 C 261.95034,88.397826 249.34381,83.164958 234.52778,83.164958 Z"
         style="fill:#220000;fill-opacity:1;fill-rule:nonzero;stroke:#000000;stroke-opacity:1"
         id="path16"
         inkscape:connector-curvature="0" /><path
         d="m 328.33829,180.50061 c 0,2.70792 -0.96039,5.02074 -2.88419,6.94393 -1.9238,1.85421 -4.20319,2.77782 -6.83816,2.77782 h -0.32216 c -2.63497,0 -4.91436,-0.92361 -6.83816,-2.77782 -1.92077,-1.92319 -2.88419,-4.23601 -2.88419,-6.94393 V 65.534042 c 0,-9.901055 3.49202,-18.342086 10.47303,-25.322485 6.97797,-6.980703 15.42082,-10.46999 25.32249,-10.46999 h 55.40433 c 2.70791,0 5.02073,0.960382 6.94453,2.883882 1.92381,1.850559 2.88419,4.129948 2.88419,6.838165 v 0.213655 c 0,2.707913 -0.96038,5.020428 -2.88419,6.943624 -1.9238,1.924412 -4.23662,2.885098 -6.94453,2.885098 h -55.40433 c -4.41898,0 -8.19365,1.568219 -11.32705,4.70101 -3.13339,3.136743 -4.70161,6.910802 -4.70161,11.327041 z"
         style="fill:#220000;fill-opacity:1;fill-rule:nonzero;stroke:#000000;stroke-opacity:1"
         id="path18"
         inkscape:connector-curvature="0" /><path
         d="m 286.87165,182.09041 c -1.3889,0.0486 -2.74468,0.48901 -3.89623,1.27008 l -50.48967,33.43102 -50.19517,-33.32161 c -8.10854,-5.37936 -16.18122,6.77738 -8.07298,12.15673 l 54.21996,35.99276 c 2.44654,1.629 5.61641,1.629 8.05961,0.0118 l 54.54151,-36.10216 c 6.22091,-3.98772 3.23977,-13.65263 -4.16703,-13.43867 z"
         style="fill:#220000;fill-opacity:1;fill-rule:nonzero;stroke:#000000;stroke-opacity:1"
         id="path20"
         inkscape:connector-curvature="0" /></g><g
       transform="matrix(1.3151399,0,0,1.3151399,90.794998,22.884836)"
       id="g856"
       style="fill:#220000;fill-opacity:1;stroke:#000000;stroke-width:0.60830033;stroke-opacity:1"><path
         inkscape:connector-curvature="0"
         d="m 33.202572,-72.925438 v 7.34185 q -1.946442,-1.263482 -3.858738,-1.843999 -1.878147,-0.614667 -3.824591,-0.614667 -3.85874,0 -6.04422,2.18548 -2.151333,2.185481 -2.151333,6.078368 0,3.927037 2.151333,6.078368 2.151331,2.151333 6.04422,2.151333 2.18548,0 4.131924,-0.614667 1.98059,-0.614666 3.551405,-1.80985 v 7.273552 q -2.219629,0.751258 -4.473406,1.161036 -2.219628,0.37563 -4.336813,0.37563 -7.205255,0 -11.542069,-3.995332 -4.3368125,-3.995332 -4.3368125,-10.62007 0,-6.658885 4.3368125,-10.620069 4.336814,-3.995332 11.542069,-3.995332 2.356223,0 4.541703,0.37563 2.18548,0.341481 4.268516,1.092739 z M 22.99228,-79.925805 q -4.131924,0 -7.68333,1.502518 -3.551406,1.468371 -6.5222935,4.439257 -2.9708873,2.970888 -4.4734053,6.522295 -1.4683698,3.517256 -1.4683698,7.683329 0,4.131924 1.4683698,7.683331 1.502518,3.517258 4.4734053,6.488144 2.9367395,2.93674 6.4881455,4.405111 3.585554,1.468368 7.717478,1.468368 4.200221,0 7.717479,-1.43422 3.517259,-1.468371 6.488145,-4.439259 2.970888,-2.970886 4.439259,-6.488144 1.502517,-3.551407 1.502517,-7.683331 0,-4.166073 -1.502517,-7.683329 -1.468371,-3.551407 -4.439259,-6.522295 -3.005035,-3.005035 -6.556442,-4.473406 -3.517256,-1.468369 -7.649182,-1.468369 z m 0,-5.258813 q 5.190516,0 9.663923,1.878147 4.507554,1.878147 8.2297,5.600295 3.722148,3.722146 5.566146,8.195553 1.843999,4.473405 1.843999,9.732217 0,5.190516 -1.843999,9.663922 -1.843998,4.439258 -5.566146,8.161404 -3.722146,3.722148 -8.2297,5.600295 -4.473407,1.878147 -9.663923,1.878147 -5.190516,0 -9.69807,-1.878147 -4.4734045,-1.878147 -8.1955517,-5.600295 -3.7221467,-3.722146 -5.56614593,-8.161404 -1.84399927,-4.473406 -1.84399927,-9.663922 0,-5.258812 1.84399927,-9.732217 1.84399923,-4.473407 5.56614593,-8.195553 3.7221472,-3.722148 8.1955517,-5.600295 4.507554,-1.878147 9.69807,-1.878147 z"
         style="font-weight:bold;fill:#220000;fill-opacity:1;stroke:#000000;stroke-width:1.18856537;stroke-opacity:1"
         id="path820" /><g
         aria-label="MM"
         transform="matrix(0.6083003,0,0,0.6083003,-62.883292,-315.012)"
         style="font-style:normal;font-weight:normal;font-size:40px;line-height:1.25;font-family:sans-serif;letter-spacing:0px;word-spacing:0px;fill:#220000;fill-opacity:1;stroke:#000000;stroke-opacity:1"
         id="flowRoot843"><path
           d="m 207.74789,462.17077 q -4.08,0 -6.24,-2.28 -2.16,-2.28 -2.16,-6.36 v -69.48 q 0,-4.08 2.28,-6.36 2.4,-2.28 6.48,-2.28 3.6,0 5.64,1.44 2.16,1.32 3.96,4.68 l 27.72,50.64 h -4.08 l 27.72,-50.64 q 1.8,-3.36 3.84,-4.68 2.16,-1.44 5.64,-1.44 4.08,0 6.24,2.28 2.28,2.28 2.28,6.36 v 69.48 q 0,4.08 -2.16,6.36 -2.16,2.28 -6.24,2.28 -4.08,0 -6.36,-2.28 -2.16,-2.28 -2.16,-6.36 v -48.6 h 2.64 l -22.32,39.96 q -1.44,2.28 -3.12,3.48 -1.56,1.08 -4.2,1.08 -2.64,0 -4.32,-1.2 -1.68,-1.2 -3,-3.36 l -22.56,-40.08 h 2.88 v 48.72 q 0,4.08 -2.16,6.36 -2.04,2.28 -6.24,2.28 z"
           style="font-style:normal;font-variant:normal;font-weight:800;font-stretch:normal;font-size:120px;font-family:Nunito;-inkscape-font-specification:'Nunito, Ultra-Bold';font-variant-ligatures:normal;font-variant-caps:normal;font-variant-numeric:normal;font-feature-settings:normal;text-align:start;writing-mode:lr-tb;text-anchor:start;fill:#220000;fill-opacity:1;stroke:#000000;stroke-opacity:1"
           id="path859" /><path
           d="m 312.86782,462.17077 q -4.08,0 -6.24,-2.28 -2.16,-2.28 -2.16,-6.36 v -69.48 q 0,-4.08 2.28,-6.36 2.4,-2.28 6.48,-2.28 3.6,0 5.64,1.44 2.16,1.32 3.96,4.68 l 27.72,50.64 h -4.08 l 27.72,-50.64 q 1.8,-3.36 3.84,-4.68 2.16,-1.44 5.64,-1.44 4.08,0 6.24,2.28 2.28,2.28 2.28,6.36 v 69.48 q 0,4.08 -2.16,6.36 -2.16,2.28 -6.24,2.28 -4.08,0 -6.36,-2.28 -2.16,-2.28 -2.16,-6.36 v -48.6 h 2.64 l -22.32,39.96 q -1.44,2.28 -3.12,3.48 -1.56,1.08 -4.2,1.08 -2.64,0 -4.32,-1.2 -1.68,-1.2 -3,-3.36 l -22.56,-40.08 h 2.88 v 48.72 q 0,4.08 -2.16,6.36 -2.04,2.28 -6.24,2.28 z"
           style="font-style:normal;font-variant:normal;font-weight:800;font-stretch:normal;font-size:120px;font-family:Nunito;-inkscape-font-specification:'Nunito, Ultra-Bold';font-variant-ligatures:normal;font-variant-caps:normal;font-variant-numeric:normal;font-feature-settings:normal;text-align:start;writing-mode:lr-tb;text-anchor:start;fill:#220000;fill-opacity:1;stroke:#000000;stroke-opacity:1"
           id="path861" /></g></g></g></g>
</g></g></svg>